<mxfile host="app.diagrams.net" modified="2023-11-08T09:00:47.790Z" agent="Mozilla/5.0 (Windows NT 10.0; Win64; x64) AppleWebKit/537.36 (KHTML, like Gecko) Chrome/119.0.0.0 Safari/537.36" etag="JWc-vIsUoggQvO1N3aO3" version="22.0.8" type="device">
  <diagram id="C5RBs43oDa-KdzZeNtuy" name="Page-1">
    <mxGraphModel dx="798" dy="436" grid="1" gridSize="10" guides="1" tooltips="1" connect="1" arrows="1" fold="1" page="1" pageScale="1" pageWidth="827" pageHeight="1169" math="0" shadow="0">
      <root>
        <mxCell id="WIyWlLk6GJQsqaUBKTNV-0" />
        <mxCell id="WIyWlLk6GJQsqaUBKTNV-1" parent="WIyWlLk6GJQsqaUBKTNV-0" />
        <mxCell id="XbPOsl9xGio22JrIgskk-8" style="edgeStyle=orthogonalEdgeStyle;rounded=0;orthogonalLoop=1;jettySize=auto;html=1;exitX=0.5;exitY=1;exitDx=0;exitDy=0;entryX=0.5;entryY=0;entryDx=0;entryDy=0;" parent="WIyWlLk6GJQsqaUBKTNV-1" source="WIyWlLk6GJQsqaUBKTNV-3" target="WIyWlLk6GJQsqaUBKTNV-6" edge="1">
          <mxGeometry relative="1" as="geometry" />
        </mxCell>
        <mxCell id="WIyWlLk6GJQsqaUBKTNV-3" value="User searches for nearby carparks" style="rounded=1;whiteSpace=wrap;html=1;fontSize=12;glass=0;strokeWidth=1;shadow=0;" parent="WIyWlLk6GJQsqaUBKTNV-1" vertex="1">
          <mxGeometry x="160" y="60" width="120" height="40" as="geometry" />
        </mxCell>
        <mxCell id="XbPOsl9xGio22JrIgskk-0" style="edgeStyle=orthogonalEdgeStyle;rounded=0;orthogonalLoop=1;jettySize=auto;html=1;exitX=1;exitY=0.5;exitDx=0;exitDy=0;entryX=0;entryY=0.5;entryDx=0;entryDy=0;" parent="WIyWlLk6GJQsqaUBKTNV-1" source="WIyWlLk6GJQsqaUBKTNV-6" target="WIyWlLk6GJQsqaUBKTNV-7" edge="1">
          <mxGeometry relative="1" as="geometry" />
        </mxCell>
        <mxCell id="XbPOsl9xGio22JrIgskk-2" value="True" style="edgeLabel;html=1;align=center;verticalAlign=middle;resizable=0;points=[];" parent="XbPOsl9xGio22JrIgskk-0" vertex="1" connectable="0">
          <mxGeometry x="-0.12" y="-2" relative="1" as="geometry">
            <mxPoint y="-12" as="offset" />
          </mxGeometry>
        </mxCell>
        <mxCell id="XbPOsl9xGio22JrIgskk-3" style="edgeStyle=orthogonalEdgeStyle;rounded=0;orthogonalLoop=1;jettySize=auto;html=1;exitX=0.5;exitY=1;exitDx=0;exitDy=0;entryX=0.5;entryY=0;entryDx=0;entryDy=0;" parent="WIyWlLk6GJQsqaUBKTNV-1" source="WIyWlLk6GJQsqaUBKTNV-6" target="XbPOsl9xGio22JrIgskk-4" edge="1">
          <mxGeometry relative="1" as="geometry">
            <mxPoint x="220" y="290" as="targetPoint" />
          </mxGeometry>
        </mxCell>
        <mxCell id="XbPOsl9xGio22JrIgskk-5" value="False" style="edgeLabel;html=1;align=center;verticalAlign=middle;resizable=0;points=[];" parent="XbPOsl9xGio22JrIgskk-3" vertex="1" connectable="0">
          <mxGeometry x="-0.44" y="1" relative="1" as="geometry">
            <mxPoint x="19" y="6" as="offset" />
          </mxGeometry>
        </mxCell>
        <mxCell id="WIyWlLk6GJQsqaUBKTNV-6" value="If (Location allowed)" style="rhombus;whiteSpace=wrap;html=1;shadow=0;fontFamily=Helvetica;fontSize=12;align=center;strokeWidth=1;spacing=6;spacingTop=-4;" parent="WIyWlLk6GJQsqaUBKTNV-1" vertex="1">
          <mxGeometry x="170" y="170" width="100" height="80" as="geometry" />
        </mxCell>
        <mxCell id="XbPOsl9xGio22JrIgskk-9" style="edgeStyle=orthogonalEdgeStyle;rounded=0;orthogonalLoop=1;jettySize=auto;html=1;exitX=1;exitY=0.5;exitDx=0;exitDy=0;" parent="WIyWlLk6GJQsqaUBKTNV-1" source="WIyWlLk6GJQsqaUBKTNV-7" target="XbPOsl9xGio22JrIgskk-10" edge="1">
          <mxGeometry relative="1" as="geometry">
            <mxPoint x="560" y="210" as="targetPoint" />
          </mxGeometry>
        </mxCell>
        <mxCell id="WIyWlLk6GJQsqaUBKTNV-7" value="search_nearby_carparks(request)" style="rounded=1;whiteSpace=wrap;html=1;fontSize=12;glass=0;strokeWidth=1;shadow=0;" parent="WIyWlLk6GJQsqaUBKTNV-1" vertex="1">
          <mxGeometry x="332" y="190" width="200" height="40" as="geometry" />
        </mxCell>
        <mxCell id="XbPOsl9xGio22JrIgskk-4" value="User enters manual location" style="rounded=1;whiteSpace=wrap;html=1;" parent="WIyWlLk6GJQsqaUBKTNV-1" vertex="1">
          <mxGeometry x="160" y="300" width="120" height="60" as="geometry" />
        </mxCell>
        <mxCell id="XbPOsl9xGio22JrIgskk-6" style="edgeStyle=orthogonalEdgeStyle;rounded=0;orthogonalLoop=1;jettySize=auto;html=1;exitX=1;exitY=0.5;exitDx=0;exitDy=0;entryX=0.378;entryY=1;entryDx=0;entryDy=0;entryPerimeter=0;" parent="WIyWlLk6GJQsqaUBKTNV-1" source="XbPOsl9xGio22JrIgskk-4" target="WIyWlLk6GJQsqaUBKTNV-7" edge="1">
          <mxGeometry relative="1" as="geometry" />
        </mxCell>
        <mxCell id="XbPOsl9xGio22JrIgskk-11" style="edgeStyle=orthogonalEdgeStyle;rounded=0;orthogonalLoop=1;jettySize=auto;html=1;exitX=0.5;exitY=1;exitDx=0;exitDy=0;" parent="WIyWlLk6GJQsqaUBKTNV-1" source="XbPOsl9xGio22JrIgskk-10" target="XbPOsl9xGio22JrIgskk-12" edge="1">
          <mxGeometry relative="1" as="geometry">
            <mxPoint x="650" y="300" as="targetPoint" />
          </mxGeometry>
        </mxCell>
        <mxCell id="XbPOsl9xGio22JrIgskk-10" value="User clicks on carpark" style="rounded=1;whiteSpace=wrap;html=1;" parent="WIyWlLk6GJQsqaUBKTNV-1" vertex="1">
          <mxGeometry x="590" y="180" width="120" height="60" as="geometry" />
        </mxCell>
        <mxCell id="XbPOsl9xGio22JrIgskk-20" style="edgeStyle=orthogonalEdgeStyle;rounded=0;orthogonalLoop=1;jettySize=auto;html=1;exitX=0.537;exitY=0.975;exitDx=0;exitDy=0;entryX=0.5;entryY=0;entryDx=0;entryDy=0;exitPerimeter=0;" parent="WIyWlLk6GJQsqaUBKTNV-1" source="XbPOsl9xGio22JrIgskk-12" target="XbPOsl9xGio22JrIgskk-19" edge="1">
          <mxGeometry relative="1" as="geometry">
            <Array as="points" />
          </mxGeometry>
        </mxCell>
        <mxCell id="XbPOsl9xGio22JrIgskk-12" value="get_carpark_details(request, carpark_id):" style="rounded=1;whiteSpace=wrap;html=1;" parent="WIyWlLk6GJQsqaUBKTNV-1" vertex="1">
          <mxGeometry x="555" y="300" width="190" height="60" as="geometry" />
        </mxCell>
        <mxCell id="PFOA_2BmRJSfiuHtAGYM-3" style="edgeStyle=orthogonalEdgeStyle;rounded=0;orthogonalLoop=1;jettySize=auto;html=1;exitX=0;exitY=0.5;exitDx=0;exitDy=0;" parent="WIyWlLk6GJQsqaUBKTNV-1" source="XbPOsl9xGio22JrIgskk-19" target="PFOA_2BmRJSfiuHtAGYM-4" edge="1">
          <mxGeometry relative="1" as="geometry">
            <mxPoint x="530" y="460" as="targetPoint" />
          </mxGeometry>
        </mxCell>
        <mxCell id="XbPOsl9xGio22JrIgskk-19" value="display results" style="rounded=1;whiteSpace=wrap;html=1;" parent="WIyWlLk6GJQsqaUBKTNV-1" vertex="1">
          <mxGeometry x="597" y="430" width="120" height="60" as="geometry" />
        </mxCell>
        <mxCell id="PFOA_2BmRJSfiuHtAGYM-5" style="edgeStyle=orthogonalEdgeStyle;rounded=0;orthogonalLoop=1;jettySize=auto;html=1;exitX=0;exitY=1;exitDx=0;exitDy=0;" parent="WIyWlLk6GJQsqaUBKTNV-1" source="PFOA_2BmRJSfiuHtAGYM-4" target="PFOA_2BmRJSfiuHtAGYM-6" edge="1">
          <mxGeometry relative="1" as="geometry">
            <mxPoint x="240" y="540" as="targetPoint" />
          </mxGeometry>
        </mxCell>
        <mxCell id="PFOA_2BmRJSfiuHtAGYM-20" value="navigate" style="edgeLabel;html=1;align=center;verticalAlign=middle;resizable=0;points=[];" parent="PFOA_2BmRJSfiuHtAGYM-5" vertex="1" connectable="0">
          <mxGeometry x="-0.0746" y="2" relative="1" as="geometry">
            <mxPoint as="offset" />
          </mxGeometry>
        </mxCell>
        <mxCell id="PFOA_2BmRJSfiuHtAGYM-7" style="edgeStyle=orthogonalEdgeStyle;rounded=0;orthogonalLoop=1;jettySize=auto;html=1;exitX=0.5;exitY=1;exitDx=0;exitDy=0;" parent="WIyWlLk6GJQsqaUBKTNV-1" source="PFOA_2BmRJSfiuHtAGYM-4" target="PFOA_2BmRJSfiuHtAGYM-8" edge="1">
          <mxGeometry relative="1" as="geometry">
            <mxPoint x="432" y="540" as="targetPoint" />
          </mxGeometry>
        </mxCell>
        <mxCell id="PFOA_2BmRJSfiuHtAGYM-21" value="add to favourites" style="edgeLabel;html=1;align=center;verticalAlign=middle;resizable=0;points=[];" parent="PFOA_2BmRJSfiuHtAGYM-7" vertex="1" connectable="0">
          <mxGeometry x="-0.075" relative="1" as="geometry">
            <mxPoint as="offset" />
          </mxGeometry>
        </mxCell>
        <mxCell id="PFOA_2BmRJSfiuHtAGYM-10" style="edgeStyle=orthogonalEdgeStyle;rounded=0;orthogonalLoop=1;jettySize=auto;html=1;exitX=1;exitY=1;exitDx=0;exitDy=0;" parent="WIyWlLk6GJQsqaUBKTNV-1" edge="1">
          <mxGeometry relative="1" as="geometry">
            <mxPoint x="612" y="585" as="targetPoint" />
            <mxPoint x="465" y="480" as="sourcePoint" />
            <Array as="points">
              <mxPoint x="582" y="480" />
              <mxPoint x="582" y="585" />
            </Array>
          </mxGeometry>
        </mxCell>
        <mxCell id="PFOA_2BmRJSfiuHtAGYM-19" value="exit" style="edgeLabel;html=1;align=center;verticalAlign=middle;resizable=0;points=[];" parent="PFOA_2BmRJSfiuHtAGYM-10" vertex="1" connectable="0">
          <mxGeometry x="0.2778" y="3" relative="1" as="geometry">
            <mxPoint as="offset" />
          </mxGeometry>
        </mxCell>
        <mxCell id="PFOA_2BmRJSfiuHtAGYM-12" style="edgeStyle=orthogonalEdgeStyle;rounded=0;orthogonalLoop=1;jettySize=auto;html=1;exitX=0;exitY=0.5;exitDx=0;exitDy=0;" parent="WIyWlLk6GJQsqaUBKTNV-1" source="PFOA_2BmRJSfiuHtAGYM-4" target="PFOA_2BmRJSfiuHtAGYM-13" edge="1">
          <mxGeometry relative="1" as="geometry">
            <mxPoint x="100" y="550" as="targetPoint" />
          </mxGeometry>
        </mxCell>
        <mxCell id="PFOA_2BmRJSfiuHtAGYM-22" value="sh" style="edgeLabel;html=1;align=center;verticalAlign=middle;resizable=0;points=[];" parent="PFOA_2BmRJSfiuHtAGYM-12" vertex="1" connectable="0">
          <mxGeometry x="-0.1059" y="-3" relative="1" as="geometry">
            <mxPoint as="offset" />
          </mxGeometry>
        </mxCell>
        <mxCell id="PFOA_2BmRJSfiuHtAGYM-23" value="share" style="edgeLabel;html=1;align=center;verticalAlign=middle;resizable=0;points=[];" parent="PFOA_2BmRJSfiuHtAGYM-12" vertex="1" connectable="0">
          <mxGeometry x="-0.1235" y="-5" relative="1" as="geometry">
            <mxPoint as="offset" />
          </mxGeometry>
        </mxCell>
        <mxCell id="PFOA_2BmRJSfiuHtAGYM-4" value="switch(button)" style="rhombus;whiteSpace=wrap;html=1;" parent="WIyWlLk6GJQsqaUBKTNV-1" vertex="1">
          <mxGeometry x="370" y="420" width="124" height="80" as="geometry" />
        </mxCell>
        <mxCell id="PFOA_2BmRJSfiuHtAGYM-6" value="startNavigate()" style="rounded=1;whiteSpace=wrap;html=1;" parent="WIyWlLk6GJQsqaUBKTNV-1" vertex="1">
          <mxGeometry x="180" y="520" width="120" height="60" as="geometry" />
        </mxCell>
        <mxCell id="PFOA_2BmRJSfiuHtAGYM-8" value="modifyfavourites(username,carpakID,add)" style="rounded=1;whiteSpace=wrap;html=1;" parent="WIyWlLk6GJQsqaUBKTNV-1" vertex="1">
          <mxGeometry x="317" y="580" width="230" height="60" as="geometry" />
        </mxCell>
        <mxCell id="PFOA_2BmRJSfiuHtAGYM-18" style="edgeStyle=orthogonalEdgeStyle;rounded=0;orthogonalLoop=1;jettySize=auto;html=1;exitX=0.5;exitY=1;exitDx=0;exitDy=0;entryX=1;entryY=0.5;entryDx=0;entryDy=0;" parent="WIyWlLk6GJQsqaUBKTNV-1" source="PFOA_2BmRJSfiuHtAGYM-11" target="PFOA_2BmRJSfiuHtAGYM-14" edge="1">
          <mxGeometry relative="1" as="geometry" />
        </mxCell>
        <mxCell id="PFOA_2BmRJSfiuHtAGYM-11" value="exit()" style="rounded=1;whiteSpace=wrap;html=1;" parent="WIyWlLk6GJQsqaUBKTNV-1" vertex="1">
          <mxGeometry x="610" y="555" width="120" height="60" as="geometry" />
        </mxCell>
        <mxCell id="PFOA_2BmRJSfiuHtAGYM-15" style="edgeStyle=orthogonalEdgeStyle;rounded=0;orthogonalLoop=1;jettySize=auto;html=1;exitX=0.5;exitY=1;exitDx=0;exitDy=0;entryX=-0.004;entryY=0.617;entryDx=0;entryDy=0;entryPerimeter=0;" parent="WIyWlLk6GJQsqaUBKTNV-1" source="PFOA_2BmRJSfiuHtAGYM-13" target="PFOA_2BmRJSfiuHtAGYM-14" edge="1">
          <mxGeometry relative="1" as="geometry">
            <mxPoint x="90" y="760" as="targetPoint" />
          </mxGeometry>
        </mxCell>
        <mxCell id="PFOA_2BmRJSfiuHtAGYM-13" value="generateShareLink()" style="rounded=1;whiteSpace=wrap;html=1;" parent="WIyWlLk6GJQsqaUBKTNV-1" vertex="1">
          <mxGeometry x="30" y="520" width="120" height="60" as="geometry" />
        </mxCell>
        <mxCell id="PFOA_2BmRJSfiuHtAGYM-14" value="return" style="rounded=1;whiteSpace=wrap;html=1;" parent="WIyWlLk6GJQsqaUBKTNV-1" vertex="1">
          <mxGeometry x="320" y="720" width="120" height="60" as="geometry" />
        </mxCell>
        <mxCell id="PFOA_2BmRJSfiuHtAGYM-17" style="edgeStyle=orthogonalEdgeStyle;rounded=0;orthogonalLoop=1;jettySize=auto;html=1;exitX=0.5;exitY=1;exitDx=0;exitDy=0;entryX=0.808;entryY=-0.075;entryDx=0;entryDy=0;entryPerimeter=0;" parent="WIyWlLk6GJQsqaUBKTNV-1" source="PFOA_2BmRJSfiuHtAGYM-8" target="PFOA_2BmRJSfiuHtAGYM-14" edge="1">
          <mxGeometry relative="1" as="geometry" />
        </mxCell>
        <mxCell id="AUsdj9GX2JWd-u-9Uwe1-0" value="&lt;font style=&quot;font-size: 15px;&quot;&gt;1&lt;/font&gt;" style="text;html=1;strokeColor=none;fillColor=none;align=center;verticalAlign=middle;whiteSpace=wrap;rounded=0;" vertex="1" parent="WIyWlLk6GJQsqaUBKTNV-1">
          <mxGeometry x="280" y="60" width="60" height="30" as="geometry" />
        </mxCell>
        <mxCell id="AUsdj9GX2JWd-u-9Uwe1-1" value="&lt;font style=&quot;font-size: 15px;&quot;&gt;2&lt;/font&gt;" style="text;html=1;strokeColor=none;fillColor=none;align=center;verticalAlign=middle;whiteSpace=wrap;rounded=0;" vertex="1" parent="WIyWlLk6GJQsqaUBKTNV-1">
          <mxGeometry x="240" y="160" width="60" height="30" as="geometry" />
        </mxCell>
        <mxCell id="AUsdj9GX2JWd-u-9Uwe1-2" value="&lt;font style=&quot;font-size: 15px;&quot;&gt;3&lt;/font&gt;" style="text;html=1;strokeColor=none;fillColor=none;align=center;verticalAlign=middle;whiteSpace=wrap;rounded=0;" vertex="1" parent="WIyWlLk6GJQsqaUBKTNV-1">
          <mxGeometry x="410" y="160" width="60" height="30" as="geometry" />
        </mxCell>
        <mxCell id="AUsdj9GX2JWd-u-9Uwe1-3" value="&lt;font style=&quot;font-size: 15px;&quot;&gt;4&lt;/font&gt;" style="text;html=1;strokeColor=none;fillColor=none;align=center;verticalAlign=middle;whiteSpace=wrap;rounded=0;" vertex="1" parent="WIyWlLk6GJQsqaUBKTNV-1">
          <mxGeometry x="660" y="150" width="60" height="30" as="geometry" />
        </mxCell>
        <mxCell id="AUsdj9GX2JWd-u-9Uwe1-4" value="&lt;font style=&quot;font-size: 15px;&quot;&gt;5&lt;/font&gt;" style="text;html=1;strokeColor=none;fillColor=none;align=center;verticalAlign=middle;whiteSpace=wrap;rounded=0;" vertex="1" parent="WIyWlLk6GJQsqaUBKTNV-1">
          <mxGeometry x="270" y="285" width="60" height="30" as="geometry" />
        </mxCell>
        <mxCell id="AUsdj9GX2JWd-u-9Uwe1-5" value="&lt;font style=&quot;font-size: 15px;&quot;&gt;5&lt;/font&gt;" style="text;html=1;strokeColor=none;fillColor=none;align=center;verticalAlign=middle;whiteSpace=wrap;rounded=0;" vertex="1" parent="WIyWlLk6GJQsqaUBKTNV-1">
          <mxGeometry x="670" y="270" width="60" height="30" as="geometry" />
        </mxCell>
        <mxCell id="AUsdj9GX2JWd-u-9Uwe1-6" value="&lt;font style=&quot;font-size: 15px;&quot;&gt;7&lt;/font&gt;" style="text;html=1;strokeColor=none;fillColor=none;align=center;verticalAlign=middle;whiteSpace=wrap;rounded=0;" vertex="1" parent="WIyWlLk6GJQsqaUBKTNV-1">
          <mxGeometry x="690" y="410" width="60" height="30" as="geometry" />
        </mxCell>
        <mxCell id="AUsdj9GX2JWd-u-9Uwe1-7" value="&lt;font style=&quot;font-size: 15px;&quot;&gt;6&lt;/font&gt;" style="text;html=1;strokeColor=none;fillColor=none;align=center;verticalAlign=middle;whiteSpace=wrap;rounded=0;" vertex="1" parent="WIyWlLk6GJQsqaUBKTNV-1">
          <mxGeometry x="440" y="410" width="60" height="30" as="geometry" />
        </mxCell>
        <mxCell id="AUsdj9GX2JWd-u-9Uwe1-8" value="&lt;font style=&quot;font-size: 15px;&quot;&gt;8&lt;/font&gt;" style="text;html=1;strokeColor=none;fillColor=none;align=center;verticalAlign=middle;whiteSpace=wrap;rounded=0;" vertex="1" parent="WIyWlLk6GJQsqaUBKTNV-1">
          <mxGeometry x="100" y="490" width="60" height="30" as="geometry" />
        </mxCell>
        <mxCell id="AUsdj9GX2JWd-u-9Uwe1-9" value="&lt;font style=&quot;font-size: 15px;&quot;&gt;9&lt;/font&gt;" style="text;html=1;strokeColor=none;fillColor=none;align=center;verticalAlign=middle;whiteSpace=wrap;rounded=0;" vertex="1" parent="WIyWlLk6GJQsqaUBKTNV-1">
          <mxGeometry x="250" y="490" width="60" height="30" as="geometry" />
        </mxCell>
        <mxCell id="AUsdj9GX2JWd-u-9Uwe1-10" value="&lt;font style=&quot;font-size: 15px;&quot;&gt;10&lt;/font&gt;" style="text;html=1;strokeColor=none;fillColor=none;align=center;verticalAlign=middle;whiteSpace=wrap;rounded=0;" vertex="1" parent="WIyWlLk6GJQsqaUBKTNV-1">
          <mxGeometry x="472" y="550" width="60" height="30" as="geometry" />
        </mxCell>
        <mxCell id="AUsdj9GX2JWd-u-9Uwe1-11" value="&lt;font style=&quot;font-size: 15px;&quot;&gt;11&lt;/font&gt;" style="text;html=1;strokeColor=none;fillColor=none;align=center;verticalAlign=middle;whiteSpace=wrap;rounded=0;" vertex="1" parent="WIyWlLk6GJQsqaUBKTNV-1">
          <mxGeometry x="710" y="530" width="60" height="30" as="geometry" />
        </mxCell>
        <mxCell id="AUsdj9GX2JWd-u-9Uwe1-12" value="&lt;font style=&quot;font-size: 15px;&quot;&gt;12&lt;/font&gt;" style="text;html=1;strokeColor=none;fillColor=none;align=center;verticalAlign=middle;whiteSpace=wrap;rounded=0;" vertex="1" parent="WIyWlLk6GJQsqaUBKTNV-1">
          <mxGeometry x="317" y="690" width="60" height="30" as="geometry" />
        </mxCell>
      </root>
    </mxGraphModel>
  </diagram>
</mxfile>
